<svg xmlns="http://www.w3.org/2000/svg" xmlns:xlink="http://www.w3.org/1999/xlink" width="100" height="98.512" viewBox="0 0 100 98.512"><defs><linearGradient id="a" y1="1.372" x2="1" y2="1.372" gradientUnits="objectBoundingBox"><stop offset="0" stop-color="#ee0979"/><stop offset="1" stop-color="#ff6a00"/></linearGradient><linearGradient id="b" x1="0" y1="1.15" x2="1" y2="1.15" xlink:href="#a"/></defs><g transform="translate(-7.9 -5.1)"><g transform="translate(7.9 5.1)"><path d="M104.863,93.158a31.68,31.68,0,0,0,2.762-2.592A40.632,40.632,0,0,0,78.684,21.5c-.722,0-1.487.042-2.21.085-.467,0-.892.042-1.36.085h-.255c-.3.042-.552.042-.807.085-.977.127-1.955.255-2.89.425a.485.485,0,0,0-.255.127,31.732,31.732,0,0,0-13.94,54.654A39.229,39.229,0,0,1,78.216,5.1a48.363,48.363,0,0,1,7.055.552.321.321,0,0,1,.17.042,48.148,48.148,0,0,1,19.422,87.463Z" transform="translate(-26.07 -5.1)" fill="url(#a)"/><path d="M16.187,55.477A40.612,40.612,0,0,0,50.7,95.638a30.384,30.384,0,0,0,5.27.467h0A31.754,31.754,0,0,0,72.243,37.117a39.294,39.294,0,0,1-9.987,74.968c-.467.042-.892.127-1.36.17h-.043c-.765.085-1.487.127-2.252.17h-.425c-.722.043-1.445.043-2.21.043A48.142,48.142,0,0,1,36.119,20.5,40.632,40.632,0,0,0,16.187,55.477Z" transform="translate(-7.9 -13.955)" fill="url(#b)"/></g></g></svg>