<svg xmlns="http://www.w3.org/2000/svg" width="101.695" height="100.182" viewBox="0 0 101.695 100.182">
    <g id="Group_2" transform="translate(0)">
        <path id="Path_8" d="M230.471,91.55a32.219,32.219,0,0,0,2.809-2.636,41.32,41.32,0,0,0-29.432-70.231c-.735,0-1.513.043-2.247.086-.475,0-.908.043-1.383.086h-.259c-.3.043-.562.043-.821.086-.994.13-1.988.259-2.939.432a.493.493,0,0,0-.259.13,32.27,32.27,0,0,0-14.176,55.58A39.894,39.894,0,0,1,203.373,2a49.182,49.182,0,0,1,7.174.562.327.327,0,0,1,.173.043A48.964,48.964,0,0,1,230.471,91.55Z" transform="translate(-150.343 -2)" fill="#fff"/>
        <path id="Path_9" d="M140.828,52.969a41.3,41.3,0,0,0,35.094,40.842,30.9,30.9,0,0,0,5.359.475h0A32.292,32.292,0,0,0,197.834,34.3a39.96,39.96,0,0,1-10.157,76.239c-.475.043-.908.13-1.383.173h-.043c-.778.086-1.513.13-2.291.173h-.432c-.735.043-1.469.043-2.247.043A48.958,48.958,0,0,1,161.1,17.4,41.321,41.321,0,0,0,140.828,52.969Z" transform="translate(-132.4 -10.744)" fill="#fff"/>
    </g>
</svg>
