<svg xmlns="http://www.w3.org/2000/svg" width="245" height="154.107" viewBox="0 0 245 154.107">
    <g id="logo_w" transform="translate(13.4 -2)">
        <g id="Group_2" transform="translate(57.847 2)">
            <path id="Path_8" d="M230.471,91.55a32.219,32.219,0,0,0,2.809-2.636,41.32,41.32,0,0,0-29.432-70.231c-.735,0-1.513.043-2.247.086-.475,0-.908.043-1.383.086h-.259c-.3.043-.562.043-.821.086-.994.13-1.988.259-2.939.432a.493.493,0,0,0-.259.13,32.27,32.27,0,0,0-14.176,55.58A39.894,39.894,0,0,1,203.373,2a49.182,49.182,0,0,1,7.174.562.327.327,0,0,1,.173.043A48.964,48.964,0,0,1,230.471,91.55Z" transform="translate(-150.343 -2)" fill="#fff"/>
            <path id="Path_9" d="M140.828,52.969a41.3,41.3,0,0,0,35.094,40.842,30.9,30.9,0,0,0,5.359.475h0A32.292,32.292,0,0,0,197.834,34.3a39.96,39.96,0,0,1-10.157,76.239c-.475.043-.908.13-1.383.173h-.043c-.778.086-1.513.13-2.291.173h-.432c-.735.043-1.469.043-2.247.043A48.958,48.958,0,0,1,161.1,17.4,41.321,41.321,0,0,0,140.828,52.969Z" transform="translate(-132.4 -10.744)" fill="#fff"/>
        </g>
        <g id="cosmopair" transform="translate(-22.7 124.105)">
            <path id="Path_9609" d="M12.277,29.328A9.4,9.4,0,0,1,9.3,22.04a9.822,9.822,0,0,1,2.771-6.723c1.488-1.488,3.746-2.617,7.544-2.617a18.521,18.521,0,0,1,3.592.308c.924.154,1.694.257,2.617.359.154,0,.205.1.205.257,0,.205-.051.513-.1,1.386-.051.821-.051,2.155-.051,2.515s-.051.513-.205.513-.205-.154-.205-.513a3.521,3.521,0,0,0-1.026-2.515,8.411,8.411,0,0,0-4.927-1.386c-3.284,0-4.824.975-5.7,1.8-1.8,1.745-2.207,3.9-2.207,6.415a8.911,8.911,0,0,0,8.878,9.032c1.848,0,3.284-.205,4.311-1.232a5.429,5.429,0,0,0,.924-2.053c.051-.257.1-.359.257-.359.1,0,.154.154.154.359a26.569,26.569,0,0,1-.565,3.182.892.892,0,0,1-.616.718,13.771,13.771,0,0,1-4.413.565C16.741,32,14.227,31.124,12.277,29.328Z" transform="translate(0 -0.097)" fill="#fff"/>
            <path id="Path_9610" d="M67.2,22.348A9.553,9.553,0,0,1,76.9,12.7c5.543,0,9.7,3.49,9.7,9.238,0,5.543-3.9,10.11-9.853,10.11C70.023,32,67.2,26.762,67.2,22.348Zm17.038.257c0-5.9-3.592-9.084-7.493-9.084-4.106,0-7.185,2.72-7.185,8.109,0,5.748,3.438,9.443,7.9,9.443C79.671,31.072,84.238,29.789,84.238,22.6Z" transform="translate(-28.186 -0.097)" fill="#fff"/>
            <path id="Path_9611" d="M132.459,31.329c-.359-.154-.359-.257-.359-.924,0-1.232.1-2.207.1-2.617,0-.257.051-.411.205-.411s.154.051.154.257a6.585,6.585,0,0,0,.051.924c.359,1.848,2,2.515,3.644,2.515a3.305,3.305,0,0,0,3.541-3.284c0-1.694-.718-2.669-2.823-4.413l-1.129-.924c-2.617-2.155-3.182-3.7-3.182-5.337,0-2.617,1.95-4.413,5.081-4.413a9.264,9.264,0,0,1,2.309.257,3.4,3.4,0,0,0,.872.1c.205,0,.257.051.257.154s-.1.924-.1,2.617c0,.411-.051.565-.154.565-.154,0-.154-.1-.205-.308a3.351,3.351,0,0,0-.308-1.232c-.154-.257-.821-1.283-3.079-1.283a2.816,2.816,0,0,0-3.028,2.874c0,1.386.616,2.309,3.028,4.157l.667.565c2.925,2.309,3.592,3.8,3.592,5.8a5.175,5.175,0,0,1-2.1,4.106,6.753,6.753,0,0,1-3.746,1.026A9.044,9.044,0,0,1,132.459,31.329Z" transform="translate(-59.779 -0.097)" fill="#fff"/>
            <path id="Path_9612" d="M197.4,28.409c.1.872.257,2.258,1.334,2.617a5.366,5.366,0,0,0,1.54.205c.1,0,.257,0,.257.154s-.051.205-.359.205c-.564,0-3.336-.051-4.26-.154-.565-.051-.667-.1-.667-.257,0-.1.051-.1.154-.154.154-.051.154-.462.1-.872l-1.18-12.881-6.158,12.933c-.513,1.078-.616,1.283-.821,1.283-.154,0-.308-.257-.77-1.129-.616-1.232-2.771-5.491-2.874-5.7-.205-.462-3.079-6.518-3.336-7.185l-1.026,11.6c0,.411-.051.718-.051,1.18,0,.616.308.821.667.872a3.4,3.4,0,0,0,.872.1c.154,0,.257.051.257.1,0,.154-.1.205-.359.205-.924,0-2.155-.051-2.361-.051s-1.386.051-2.053.051c-.257,0-.411,0-.411-.205,0-.1.1-.154.257-.154a4.193,4.193,0,0,0,.718-.051c.821-.154.872-1.026.975-2.053l1.8-16.012c0-.257.1-.513.257-.513s.257.1.359.359l7.544,15.5,7.236-15.5c.1-.205.205-.411.359-.411s.257.205.308.667Z" transform="translate(-81.101 0)" fill="#fff"/>
            <path id="Path_9613" d="M246.2,22.348a9.553,9.553,0,0,1,9.7-9.648c5.543,0,9.7,3.49,9.7,9.238,0,5.543-3.9,10.11-9.853,10.11C249.023,32,246.2,26.762,246.2,22.348Zm17.089.257c0-5.9-3.592-9.084-7.493-9.084-4.106,0-7.185,2.72-7.185,8.109,0,5.748,3.438,9.443,7.9,9.443C258.671,31.072,263.289,29.789,263.289,22.6Z" transform="translate(-115.324 -0.097)" fill="#fff"/>
            <path id="Path_9614" d="M312.155,20.533c0-3.849,0-4.516-.051-5.337s-.257-1.232-1.078-1.386a4.414,4.414,0,0,0-.821-.051c-.1,0-.205-.051-.205-.154,0-.154.1-.205.411-.205,1.129,0,2.566.051,2.771.051.565,0,1.95-.051,3.13-.051,3.079,0,4.208,1.026,4.567,1.386a4.427,4.427,0,0,1,1.232,3.233c0,3.182-2.566,5.594-6.056,5.594h-.513c-.1,0-.257-.051-.257-.154,0-.205.154-.205.667-.205a4.054,4.054,0,0,0,4.259-4.208,4.962,4.962,0,0,0-1.386-3.592,4.266,4.266,0,0,0-3.387-1.232,3.2,3.2,0,0,0-1.078.154c-.154.051-.205.205-.205.462v10.11c0,2.361,0,4.311.1,5.337.051.718.205,1.283.975,1.334a10.2,10.2,0,0,0,1.129.1c.154,0,.205.051.205.154s-.1.205-.411.205c-1.334,0-2.925-.051-3.028-.051-.051,0-1.642.051-2.361.051-.257,0-.411-.051-.411-.205,0-.051.051-.154.205-.154a3.465,3.465,0,0,0,.718-.1c.513-.1.616-.616.719-1.334.1-1.026.1-2.977.1-5.337V20.533Z" transform="translate(-146.382 -0.438)" fill="#fff"/>
            <path id="Path_9615" d="M357.561,24.4a.262.262,0,0,0-.257.205l-1.488,4.362a5.971,5.971,0,0,0-.359,1.642c0,.513.462.718.872.718h.205c.257,0,.308.051.308.154,0,.154-.205.205-.462.205-.616,0-1.591-.051-1.848-.051s-1.642.051-2.771.051c-.308,0-.462-.051-.462-.205,0-.1.1-.154.359-.154a2.712,2.712,0,0,0,.616-.051c1.129-.154,1.642-1.078,2.053-2.309l5.594-15.293c.308-.821.411-.975.565-.975s.257.1.565.872c.359.924,4.26,11.136,5.748,14.883.872,2.207,1.591,2.566,2.1,2.72a4.145,4.145,0,0,0,.975.154c.154,0,.257,0,.257.154s-.205.205-.513.205c-.359,0-2.155,0-3.849-.051-.462,0-.718,0-.718-.154a.136.136,0,0,1,.154-.154c.154-.051.308-.257.154-.667l-2.309-6.056c-.051-.1-.1-.154-.205-.154h-5.286Zm4.978-.872c.1,0,.1-.051.1-.154L360.281,16.7c-.1-.359-.257-.359-.359,0l-2.155,6.672c-.051.1,0,.154.051.154Z" transform="translate(-166.487 -0.097)" fill="#fff"/>
            <path id="Path_9616" d="M412.447,20.485c0-3.849,0-4.516-.051-5.337s-.308-1.283-.821-1.386a5.337,5.337,0,0,0-.77-.1c-.1,0-.205-.051-.205-.154,0-.154.1-.205.411-.205.821,0,2.361.051,2.515.051.1,0,1.694-.051,2.412-.051.257,0,.411.051.411.205,0,.1-.1.154-.205.154a3.206,3.206,0,0,0-.616.051c-.667.1-.872.565-.924,1.386-.051.77-.051,1.488-.051,5.337V24.8c0,2.361,0,4.311.1,5.337.051.718.205,1.283.975,1.334.359.051.872.1,1.026.1q.308,0,.308.154c0,.1-.1.205-.359.205-1.334,0-2.925-.051-3.079-.051-.1,0-1.694.051-2.412.051-.257,0-.411-.051-.411-.205,0-.051.051-.154.257-.154a2.712,2.712,0,0,0,.616-.051c.513-.1.616-.667.719-1.386.1-1.026.1-2.977.1-5.337V20.485Z" transform="translate(-195.354 -0.389)" fill="#fff"/>
            <path id="Path_9617" d="M452.455,20.533c0-3.849,0-4.516-.051-5.337s-.257-1.232-1.078-1.386a4.415,4.415,0,0,0-.821-.051c-.1,0-.205-.051-.205-.154,0-.154.1-.205.411-.205,1.129,0,2.669.051,2.771.051.257,0,2.155-.051,2.925-.051a7.772,7.772,0,0,1,4.516,1.078,4.32,4.32,0,0,1,1.694,3.336c0,1.848-.77,3.644-2.977,5.7,2,2.566,3.7,4.773,5.132,6.312a5.354,5.354,0,0,0,3.028,1.8,8.556,8.556,0,0,0,.975.051c.1,0,.205.051.205.154,0,.154-.154.205-.616.205H466.62A4.742,4.742,0,0,1,464,31.567c-1.078-.565-1.9-1.8-3.336-3.644C459.64,26.589,458.46,24.9,458,24.28a.366.366,0,0,0-.308-.154l-3.028-.051c-.1,0-.154.051-.154.205V24.9c0,2.361,0,4.311.1,5.337.051.718.205,1.283.975,1.334a10.2,10.2,0,0,0,1.129.1c.154,0,.205.051.205.154s-.1.205-.411.205c-1.334,0-2.925-.051-3.028-.051,0,0-1.591.051-2.309.051-.257,0-.411-.051-.411-.205,0-.051.051-.154.205-.154a3.466,3.466,0,0,0,.718-.1c.513-.1.616-.616.718-1.334.1-1.026.1-2.977.1-5.337V20.533Zm2,2.155a.444.444,0,0,0,.154.308,6.91,6.91,0,0,0,2.566.411,3.019,3.019,0,0,0,1.848-.462c.872-.616,1.488-1.9,1.488-3.8,0-3.079-1.642-4.927-4.26-4.927a6.009,6.009,0,0,0-1.642.154.347.347,0,0,0-.205.308v8.006Z" transform="translate(-214.68 -0.438)" fill="#fff"/>
        </g>
    </g>
</svg>
