<svg xmlns="http://www.w3.org/2000/svg" xmlns:xlink="http://www.w3.org/1999/xlink" width="134.086" height="90.1" viewBox="0 0 134.086 90.1"><defs><linearGradient id="a" y1="0.5" x2="0.999" y2="0.5" gradientUnits="objectBoundingBox"><stop offset="0" stop-color="#ee0979"/><stop offset="1" stop-color="#ff6a00"/></linearGradient><linearGradient id="b" x1="0" y1="0.5" x2="1" y2="0.5" xlink:href="#a"/></defs><g transform="translate(-3.057 -2)"><g transform="translate(37.543 2)"><path d="M206.688,59.509a20.69,20.69,0,0,0,1.8-1.693,26.536,26.536,0,0,0-18.9-45.1c-.472,0-.971.028-1.443.056-.305,0-.583.028-.888.056h-.167c-.194.028-.361.028-.527.056-.638.083-1.277.167-1.887.278a.317.317,0,0,0-.167.083,20.724,20.724,0,0,0-9.1,35.694A25.62,25.62,0,0,1,189.285,2a31.585,31.585,0,0,1,4.607.361.21.21,0,0,1,.111.028,31.445,31.445,0,0,1,12.684,57.121Z" transform="translate(-155.229 -2)" fill="url(#a)"/><path d="M137.812,40.243A26.523,26.523,0,0,0,160.35,66.472a19.843,19.843,0,0,0,3.442.305h0a20.738,20.738,0,0,0,10.63-38.525A25.663,25.663,0,0,1,167.9,77.213c-.305.028-.583.083-.888.111h-.028c-.5.056-.971.083-1.471.111h-.278c-.472.028-.944.028-1.443.028A31.441,31.441,0,0,1,150.83,17.4,26.536,26.536,0,0,0,137.812,40.243Z" transform="translate(-132.4 -13.126)" fill="url(#b)"/></g><g transform="translate(-6.243 68.927)"><path d="M10.929,21.8A5.145,5.145,0,0,1,9.3,17.812a5.376,5.376,0,0,1,1.517-3.679A5.475,5.475,0,0,1,14.945,12.7a10.136,10.136,0,0,1,1.966.169c.506.084.927.14,1.432.2.084,0,.112.056.112.14,0,.112-.028.281-.056.758-.028.449-.028,1.18-.028,1.376s-.028.281-.112.281-.112-.084-.112-.281a1.927,1.927,0,0,0-.562-1.376,4.6,4.6,0,0,0-2.7-.758,4.2,4.2,0,0,0-3.118.983A4.507,4.507,0,0,0,10.564,17.7a4.877,4.877,0,0,0,4.859,4.943,3.129,3.129,0,0,0,2.359-.674,2.971,2.971,0,0,0,.506-1.123c.028-.14.056-.2.14-.2.056,0,.084.084.084.2a14.541,14.541,0,0,1-.309,1.741.488.488,0,0,1-.337.393,7.537,7.537,0,0,1-2.415.309A6.343,6.343,0,0,1,10.929,21.8Z" transform="translate(0 -0.144)" fill="#1b1464"/><path d="M67.2,17.98a5.228,5.228,0,0,1,5.308-5.28c3.033,0,5.308,1.91,5.308,5.056a5.305,5.305,0,0,1-5.393,5.533A5.086,5.086,0,0,1,67.2,17.98Zm9.325.14c0-3.23-1.966-4.971-4.1-4.971-2.247,0-3.932,1.489-3.932,4.438,0,3.146,1.882,5.168,4.325,5.168C74.025,22.755,76.525,22.053,76.525,18.121Z" transform="translate(-41.638 -0.144)" fill="#1b1464"/><path d="M132.3,22.9c-.2-.084-.2-.14-.2-.506,0-.674.056-1.208.056-1.432,0-.14.028-.225.112-.225s.084.028.084.14a3.6,3.6,0,0,0,.028.506,2.026,2.026,0,0,0,3.932-.421c0-.927-.393-1.461-1.545-2.415l-.618-.506c-1.432-1.18-1.741-2.022-1.741-2.921,0-1.432,1.067-2.415,2.781-2.415a5.07,5.07,0,0,1,1.264.14,1.863,1.863,0,0,0,.477.056c.112,0,.14.028.14.084s-.056.506-.056,1.432c0,.225-.028.309-.084.309-.084,0-.084-.056-.112-.169a1.834,1.834,0,0,0-.169-.674c-.084-.14-.449-.7-1.685-.7a1.541,1.541,0,0,0-1.657,1.573c0,.758.337,1.264,1.657,2.275l.365.309c1.6,1.264,1.966,2.078,1.966,3.174a2.832,2.832,0,0,1-1.152,2.247,3.7,3.7,0,0,1-2.05.562A4.95,4.95,0,0,1,132.3,22.9Z" transform="translate(-88.31 -0.144)" fill="#1b1464"/><path d="M187.668,21.207c.056.477.14,1.236.73,1.432a2.937,2.937,0,0,0,.843.112c.056,0,.14,0,.14.084s-.028.112-.2.112c-.309,0-1.826-.028-2.331-.084-.309-.028-.365-.056-.365-.14,0-.056.028-.056.084-.084.084-.028.084-.253.056-.477l-.646-7.05-3.37,7.078c-.281.59-.337.7-.449.7-.084,0-.169-.14-.421-.618-.337-.674-1.517-3.005-1.573-3.118-.112-.253-1.685-3.567-1.826-3.932l-.562,6.348c0,.225-.028.393-.028.646,0,.337.169.449.365.477a1.863,1.863,0,0,0,.477.056c.084,0,.14.028.14.056,0,.084-.056.112-.2.112-.506,0-1.18-.028-1.292-.028s-.758.028-1.123.028c-.14,0-.225,0-.225-.112,0-.056.056-.084.14-.084a2.3,2.3,0,0,0,.393-.028c.449-.084.477-.562.534-1.123l.983-8.763c0-.14.056-.281.14-.281s.14.056.2.2l4.129,8.482,3.96-8.482c.056-.112.112-.225.2-.225s.14.112.169.365Z" transform="translate(-119.808 0)" fill="#1b1464"/><path d="M246.2,17.98a5.228,5.228,0,0,1,5.308-5.28c3.033,0,5.308,1.91,5.308,5.056a5.305,5.305,0,0,1-5.393,5.533A5.086,5.086,0,0,1,246.2,17.98Zm9.353.14c0-3.23-1.966-4.971-4.1-4.971-2.247,0-3.932,1.489-3.932,4.438,0,3.146,1.882,5.168,4.325,5.168C253.025,22.755,255.553,22.053,255.553,18.121Z" transform="translate(-170.363 -0.144)" fill="#1b1464"/><path d="M311.18,17.3c0-2.106,0-2.472-.028-2.921s-.14-.674-.59-.758a2.416,2.416,0,0,0-.449-.028c-.056,0-.112-.028-.112-.084,0-.084.056-.112.225-.112.618,0,1.4.028,1.517.028.309,0,1.067-.028,1.713-.028a3.259,3.259,0,0,1,2.5.758,2.422,2.422,0,0,1,.674,1.769,3.115,3.115,0,0,1-3.314,3.061h-.281c-.056,0-.14-.028-.14-.084,0-.112.084-.112.365-.112a2.219,2.219,0,0,0,2.331-2.3,2.716,2.716,0,0,0-.758-1.966,2.335,2.335,0,0,0-1.854-.674,1.749,1.749,0,0,0-.59.084c-.084.028-.112.112-.112.253v5.533c0,1.292,0,2.359.056,2.921.028.393.112.7.534.73a5.584,5.584,0,0,0,.618.056c.084,0,.112.028.112.084s-.056.112-.225.112c-.73,0-1.6-.028-1.657-.028-.028,0-.9.028-1.292.028-.14,0-.225-.028-.225-.112,0-.028.028-.084.112-.084a1.9,1.9,0,0,0,.393-.056c.281-.056.337-.337.393-.73.056-.562.056-1.629.056-2.921V17.3Z" transform="translate(-216.243 -0.647)" fill="#1b1464"/><path d="M354.727,19.1a.143.143,0,0,0-.14.112l-.814,2.387a3.267,3.267,0,0,0-.2.9c0,.281.253.393.477.393h.112c.14,0,.168.028.168.084,0,.084-.112.112-.253.112-.337,0-.871-.028-1.011-.028s-.9.028-1.517.028c-.168,0-.253-.028-.253-.112,0-.056.056-.084.2-.084a1.484,1.484,0,0,0,.337-.028c.618-.084.9-.59,1.123-1.264l3.061-8.37c.169-.449.225-.534.309-.534s.14.056.309.477c.2.506,2.331,6.095,3.146,8.145.477,1.208.871,1.4,1.152,1.489a2.268,2.268,0,0,0,.534.084c.084,0,.14,0,.14.084s-.112.112-.281.112c-.2,0-1.18,0-2.107-.028-.253,0-.393,0-.393-.084a.074.074,0,0,1,.084-.084c.084-.028.169-.14.084-.365l-1.264-3.314c-.028-.056-.056-.084-.112-.084h-2.893Zm2.724-.477c.056,0,.056-.028.056-.084l-1.292-3.651c-.056-.2-.14-.2-.2,0l-1.18,3.651c-.028.056,0,.084.028.084Z" transform="translate(-245.944 -0.144)" fill="#1b1464"/><path d="M411.611,17.232c0-2.107,0-2.472-.028-2.921s-.169-.7-.449-.758a2.922,2.922,0,0,0-.421-.056c-.056,0-.112-.028-.112-.084,0-.084.056-.112.225-.112.449,0,1.292.028,1.376.028.056,0,.927-.028,1.32-.028.14,0,.225.028.225.112,0,.056-.056.084-.112.084a1.754,1.754,0,0,0-.337.028c-.365.056-.477.309-.506.758-.028.421-.028.815-.028,2.921v2.387c0,1.292,0,2.359.056,2.921.028.393.112.7.534.73.2.028.477.056.562.056q.169,0,.169.084c0,.056-.056.112-.2.112-.73,0-1.6-.028-1.685-.028-.056,0-.927.028-1.32.028-.14,0-.225-.028-.225-.112,0-.028.028-.084.14-.084a1.484,1.484,0,0,0,.337-.028c.281-.056.337-.365.393-.758.056-.562.056-1.629.056-2.921V17.232Z" transform="translate(-288.588 -0.575)" fill="#1b1464"/><path d="M451.48,17.3c0-2.106,0-2.472-.028-2.921s-.14-.674-.59-.758a2.416,2.416,0,0,0-.449-.028c-.056,0-.112-.028-.112-.084,0-.084.056-.112.225-.112.618,0,1.461.028,1.517.028.14,0,1.18-.028,1.6-.028a4.253,4.253,0,0,1,2.472.59,2.364,2.364,0,0,1,.927,1.826,4.168,4.168,0,0,1-1.629,3.118c1.1,1.4,2.022,2.612,2.809,3.455a2.93,2.93,0,0,0,1.657.983,4.683,4.683,0,0,0,.534.028c.056,0,.112.028.112.084,0,.084-.084.112-.337.112h-.955a2.6,2.6,0,0,1-1.432-.253,7.228,7.228,0,0,1-1.826-1.994c-.562-.73-1.208-1.657-1.46-1.994a.2.2,0,0,0-.169-.084l-1.657-.028c-.056,0-.084.028-.084.112v.337c0,1.292,0,2.359.056,2.921.028.393.112.7.534.73a5.584,5.584,0,0,0,.618.056c.084,0,.112.028.112.084s-.056.112-.225.112c-.73,0-1.6-.028-1.657-.028,0,0-.871.028-1.264.028-.14,0-.225-.028-.225-.112,0-.028.028-.084.112-.084a1.9,1.9,0,0,0,.393-.056c.281-.056.337-.337.393-.73.056-.562.056-1.629.056-2.921V17.3Zm1.1,1.18a.243.243,0,0,0,.084.169,3.782,3.782,0,0,0,1.4.225,1.652,1.652,0,0,0,1.011-.253,2.447,2.447,0,0,0,.815-2.078c0-1.685-.9-2.7-2.331-2.7a3.288,3.288,0,0,0-.9.084.19.19,0,0,0-.112.169v4.382Z" transform="translate(-317.138 -0.647)" fill="#1b1464"/></g></g></svg>